# xmcd
# 
# Track frame offsets:
#	175
#	10000
#	20950
#	31650
#	45475
#	57725
#	73337
#	86525
#	98062
#	109275
#	121282
#	131350
#	143300
#	156355
#	168825
#	180525
#
# Disc length: 2562 seconds
#
# Revision: 1
# Processed by: cddbd v1.4PL0 Copyright (c) Steve Scherf et al.
# Submitted via: Audio-CD-Archiv 2.10.451
#
DISCID=cf0a0010
DTITLE=Various Artist - Country Hits Vol.2
DYEAR=1900
DGENRE=country
TTITLE0=Ned Miller - From A Jack To A King
TTITLE1=Dave Dudley - Get Me Back To Tennessee
TTITLE2=Hank Thompson - Wake Up Irene
TTITLE3=Lobo - Me And You And A Dog Named Boo
TTITLE4=Sandy Posey - Devoted To You
TTITLE5=Leroy Van Dyke - Only Oklahoma Away
TTITLE6=Brandy Barber - Sweetest Love
TTITLE7=Kitty Wells - Heartbreak U.S.A
TTITLE8=Don Williams Feat. The Poso Seco Singers - Storybook Children
TTITLE9=Sandy Posey - Sweet Dreams (Of You)
TTITLE10=Don Williams - Take My Hand For A While
TTITLE11=Skeeter Davis - The End Of The World
TTITLE12=Faron Young - It's Four In The Morning
TTITLE13=Tommy Cash - Six White Horses
TTITLE14=Bobby Bare - Music City U.S.A.
TTITLE15=Stonewall Jackson - Waterloo
EXTD=
EXTT0=
EXTT1=
EXTT2=
EXTT3=
EXTT4=
EXTT5=
EXTT6=
EXTT7=
EXTT8=
EXTT9=
EXTT10=
EXTT11=
EXTT12=
EXTT13=
EXTT14=
EXTT15=
PLAYORDER=
